<?xml version="1.0" encoding="utf-8"?>
<svg xmlns="http://www.w3.org/2000/svg" viewBox="909.6061 463.7103 70.5117 55.9295" width="927.786px" height="735.914px">
  <defs>
    <style>.a-jfZiLp3V0filter-floo {flood-color:#FFFFFF;flood-opacity:0.5;}.a6izo4zJpcolor {fill:#6927DA;fill-opacity:1;}.aa8CRUGvPqAcolors-0 {fill:#6927DA;fill-opacity:1;}.aa8CRUGvPqAcolors-1 {fill:#9B9BFF;fill-opacity:1;}.aa8CRUGvPqAcolors-2 {fill:#64CC4B;fill-opacity:0.95;}.aB7crM0kCifillColor {fill:#6927DA;fill-opacity:1;}.aD6z1nYkhstrokeColor-str {stroke:#6927DA;stroke-opacity:0.95;}.ag-mZnowxk0filter-floo {flood-color:#6927DA;flood-opacity:0.5;}.atBXipXk0bfillColor {fill:#FFFFFF;fill-opacity:1;}.atBXipXk0bstrokeColor-str {stroke:#6927DA;stroke-opacity:1;}.background {fill:#FFFFFF;fill-opacity:1;}.icon3-str {stroke:#7AE061;stroke-opacity:0.95;}.icon4 {fill:#64CC4B;fill-opacity:1;}.icon5 {fill:#9B9BFF;fill-opacity:1;}.icon6 {fill:#E6FFDF;fill-opacity:0.95;}.icon7 {fill:#C6C6FF;fill-opacity:1;}.icon8 {fill:#EFAFAA;fill-opacity:1;}</style>
  </defs>
  <g opacity="1">
    <svg width="70.5117" height="55.9295" x="909.6061" y="463.7103" version="1.1" preserveAspectRatio="none" viewBox="19.974998474121097 36.47500228881836 160.04998779296875 126.9499969482422">
      <g transform="matrix(1 0 0 -1 0 199.9000015258789)">
        <g>
          <path d="m174.4 113.6-44.2 44.2c-7.5 7.5-19.7 7.5-27.2 0s-7.5-19.8 0-27.3l30.6-30.6L103 69.4c-7.5-7.5-7.5-19.8 0-27.3s19.7-7.5 27.2 0l44.2 44.2c7.5 7.6 7.5 19.8 0 27.3zm-74.2-27.2c-7.5-7.5-19.7-7.5-27.2 0s-7.5 19.7 0 27.3c7.5 7.5 19.7 7.5 27.2 0 7.5-7.6 7.5-19.8 0-27.3zm-74.6 0c-7.5 7.5-7.5 19.7 0 27.3 7.5 7.5 19.7 7.5 27.2 0s7.5-19.7 0-27.3c-7.5-7.5-19.6-7.5-27.2 0z" data-color="1" class="aa8CRUGvPqAcolors-0"/>
        </g>
      </g>
    </svg>
  </g>
</svg>