<svg viewBox="895 441.813 380 125.4399" width="5000" height="1650.5249999999999" xmlns="http://www.w3.org/2000/svg" xmlns:xlink="http://www.w3.org/1999/xlink" preserveAspectRatio="none"><defs></defs><style>.a-jfZiLp3V0filter-floo {flood-color:#FFFFFF;flood-opacity:0.5;}.a6izo4zJpcolor {fill:#6927DA;fill-opacity:1;}.aa8CRUGvPqAcolors-0 {fill:#6927DA;fill-opacity:1;}.aa8CRUGvPqAcolors-1 {fill:#9B9BFF;fill-opacity:1;}.aa8CRUGvPqAcolors-2 {fill:#64CC4B;fill-opacity:0.95;}.aB7crM0kCifillColor {fill:#6927DA;fill-opacity:1;}.aD6z1nYkhstrokeColor-str {stroke:#6927DA;stroke-opacity:0.95;}.ag-mZnowxk0filter-floo {flood-color:#6927DA;flood-opacity:0.5;}.atBXipXk0bfillColor {fill:#FFFFFF;fill-opacity:1;}.atBXipXk0bstrokeColor-str {stroke:#6927DA;stroke-opacity:1;}.background {fill:#FFFFFF;fill-opacity:1;}.icon3-str {stroke:#7AE061;stroke-opacity:0.95;}.icon4 {fill:#64CC4B;fill-opacity:1;}.icon5 {fill:#9B9BFF;fill-opacity:1;}.icon6 {fill:#E6FFDF;fill-opacity:0.95;}.icon7 {fill:#C6C6FF;fill-opacity:1;}.icon8 {fill:#EFAFAA;fill-opacity:1;}</style><defs>
      <filter
        x="1010.929"
        y="460.5113"
        width="245.3726"
        height="62.3275"
        id="-jfZiLp3V"
        filterUnits="userSpaceOnUse"
        primitiveUnits="userSpaceOnUse"
        color-interpolation-filters="sRGB">
        <feMerge><feMergeNode in="SourceGraphic" /></feMerge>
      </filter>
      <filter
        x="909.6061"
        y="463.7103"
        width="70.5117"
        height="55.9295"
        id="g-mZnowxk"
        filterUnits="userSpaceOnUse"
        primitiveUnits="userSpaceOnUse"
        color-interpolation-filters="sRGB">
        <feMerge><feMergeNode in="SourceGraphic" /></feMerge>
      </filter></defs><g opacity="1" transform="rotate(0 992.2308 441.813)">
<svg width="282.7692" height="99.724" x="992.2308" y="441.813" version="1.1" preserveAspectRatio="none" viewBox="0 0 282.7692 99.724">
  <defs><rect x="0" y="0" width="282.7692" height="99.724" rx="0px" ry="0px" id="id-B7crM0kCi"></rect></defs><use class="aB7crM0kCifillColor icon3-str" style="stroke-width:0;" xlink:href="#id-B7crM0kCi"></use>
</svg>
</g><g opacity="1" transform="rotate(0 902.9975 553.2529)">
<svg width="363.9294" height="14" x="902.9975" y="553.2529" version="1.1" preserveAspectRatio="none" viewBox="-0.36 -31.48 1028.36 39.56">
  <g transform="matrix(1 0 0 1 0 0)" class="a6izo4zJpcolor"><path id="id-6izo4zJp42" d="M24.24 0L21.76-6L8.76-6L6.28 0L-0.36 0L12.12-28L18.52-28L31.04 0L24.24 0ZM10.84-10.92L19.72-10.92L15.28-21.64L10.84-10.92Z M51.60-21.52L57.52-21.52L57.52-3.60Q57.52 2.32 54.44 5.20Q51.36 8.08 45.44 8.08L45.44 8.08Q42.32 8.08 39.52 7.32Q36.72 6.56 34.88 5.12L34.88 5.12L37.36 0.64Q38.72 1.76 40.80 2.42Q42.88 3.08 44.96 3.08L44.96 3.08Q48.20 3.08 49.74 1.62Q51.28 0.16 51.28-2.80L51.28-2.80L51.28-3.72Q48.84-1.04 44.48-1.04L44.48-1.04Q41.52-1.04 39.06-2.34Q36.60-3.64 35.16-6Q33.72-8.36 33.72-11.44L33.72-11.44Q33.72-14.52 35.16-16.88Q36.60-19.24 39.06-20.54Q41.52-21.84 44.48-21.84L44.48-21.84Q49.16-21.84 51.60-18.76L51.60-18.76L51.60-21.52ZM45.72-6.16Q48.20-6.16 49.78-7.62Q51.36-9.08 51.36-11.44L51.36-11.44Q51.36-13.80 49.78-15.26Q48.20-16.72 45.72-16.72L45.72-16.72Q43.24-16.72 41.64-15.26Q40.04-13.80 40.04-11.44L40.04-11.44Q40.04-9.08 41.64-7.62Q43.24-6.16 45.72-6.16L45.72-6.16Z M86.40-10.68Q86.40-10.56 86.28-9L86.28-9L70-9Q70.44-7 72.08-5.84Q73.72-4.68 76.16-4.68L76.16-4.68Q77.84-4.68 79.14-5.18Q80.44-5.68 81.56-6.76L81.56-6.76L84.88-3.16Q81.84 0.32 76 0.32L76 0.32Q72.36 0.32 69.56-1.10Q66.76-2.52 65.24-5.04Q63.72-7.56 63.72-10.76L63.72-10.76Q63.72-13.92 65.22-16.46Q66.72-19 69.34-20.42Q71.96-21.84 75.20-21.84L75.20-21.84Q78.36-21.84 80.92-20.48Q83.48-19.12 84.94-16.58Q86.40-14.04 86.40-10.68L86.40-10.68ZM75.24-17.12Q73.12-17.12 71.68-15.92Q70.24-14.72 69.92-12.64L69.92-12.64L80.52-12.64Q80.20-14.68 78.76-15.90Q77.32-17.12 75.24-17.12L75.24-17.12Z M105.64-21.84Q109.64-21.84 112.10-19.44Q114.56-17.04 114.56-12.32L114.56-12.32L114.56 0L108.32 0L108.32-11.36Q108.32-13.92 107.20-15.18Q106.08-16.44 103.96-16.44L103.96-16.44Q101.60-16.44 100.20-14.98Q98.80-13.52 98.80-10.64L98.80-10.64L98.80 0L92.56 0L92.56-21.52L98.52-21.52L98.52-19Q99.76-20.36 101.60-21.10Q103.44-21.84 105.64-21.84L105.64-21.84Z M134.40-5.44L136.08-1.04Q135.16-0.36 133.82-0.02Q132.48 0.32 131 0.32L131 0.32Q127.16 0.32 125.06-1.64Q122.96-3.60 122.96-7.40L122.96-7.40L122.96-16.24L119.64-16.24L119.64-21.04L122.96-21.04L122.96-26.28L129.20-26.28L129.20-21.04L134.56-21.04L134.56-16.24L129.20-16.24L129.20-7.48Q129.20-6.12 129.90-5.38Q130.60-4.64 131.88-4.64L131.88-4.64Q133.36-4.64 134.40-5.44L134.40-5.44Z M141.60 0L141.60-21.52L147.84-21.52L147.84 0L141.60 0ZM144.72-24.52Q143-24.52 141.92-25.52Q140.84-26.52 140.84-28L140.84-28Q140.84-29.48 141.92-30.48Q143-31.48 144.72-31.48L144.72-31.48Q146.44-31.48 147.52-30.52Q148.60-29.56 148.60-28.12L148.60-28.12Q148.60-26.56 147.52-25.54Q146.44-24.52 144.72-24.52L144.72-24.52Z M166.04 0.32Q162.60 0.32 159.86-1.10Q157.12-2.52 155.58-5.04Q154.04-7.56 154.04-10.76L154.04-10.76Q154.04-13.96 155.58-16.48Q157.12-19 159.86-20.42Q162.60-21.84 166.04-21.84L166.04-21.84Q169.44-21.84 171.98-20.42Q174.52-19 175.68-16.36L175.68-16.36L170.84-13.76Q169.16-16.72 166-16.72L166-16.72Q163.56-16.72 161.96-15.12Q160.36-13.52 160.36-10.76L160.36-10.76Q160.36-8 161.96-6.40Q163.56-4.80 166-4.80L166-4.80Q169.20-4.80 170.84-7.76L170.84-7.76L175.68-5.12Q174.52-2.56 171.98-1.12Q169.44 0.32 166.04 0.32L166.04 0.32Z M215.96 0L213.48-6L200.48-6L198.00 0L191.36 0L203.84-28L210.24-28L222.76 0L215.96 0ZM202.56-10.92L211.44-10.92L207.00-21.64L202.56-10.92Z M227.68 0L227.68-28L234.16-28L234.16 0L227.68 0Z M241.56-8.76L241.56-13.76L252.88-13.76L252.88-8.76L241.56-8.76Z M272.36-28Q276.08-28 278.82-26.76Q281.56-25.52 283.04-23.24Q284.52-20.96 284.52-17.84L284.52-17.84Q284.52-14.76 283.04-12.46Q281.56-10.16 278.82-8.94Q276.08-7.72 272.36-7.72L272.36-7.72L266.72-7.72L266.72 0L260.24 0L260.24-28L272.36-28ZM272.00-13Q274.92-13 276.44-14.26Q277.96-15.52 277.96-17.84L277.96-17.84Q277.96-20.20 276.44-21.46Q274.92-22.72 272.00-22.72L272.00-22.72L266.72-22.72L266.72-13L272.00-13Z M300.88 0.32Q297.48 0.32 294.78-1.10Q292.08-2.52 290.56-5.04Q289.04-7.56 289.04-10.76L289.04-10.76Q289.04-13.96 290.56-16.48Q292.08-19 294.78-20.42Q297.48-21.84 300.88-21.84L300.88-21.84Q304.28-21.84 306.96-20.42Q309.64-19 311.16-16.48Q312.68-13.96 312.68-10.76L312.68-10.76Q312.68-7.56 311.16-5.04Q309.64-2.52 306.96-1.10Q304.28 0.32 300.88 0.32L300.88 0.32ZM300.88-4.80Q303.28-4.80 304.82-6.42Q306.36-8.04 306.36-10.76L306.36-10.76Q306.36-13.48 304.82-15.10Q303.28-16.72 300.88-16.72L300.88-16.72Q298.48-16.72 296.92-15.10Q295.36-13.48 295.36-10.76L295.36-10.76Q295.36-8.04 296.92-6.42Q298.48-4.80 300.88-4.80L300.88-4.80Z M347.28-21.52L352.80-21.52L345.00 0L339.00 0L334.16-13.36L329.16 0L323.16 0L315.40-21.52L321.28-21.52L326.36-6.96L331.64-21.52L336.92-21.52L342.04-6.96L347.28-21.52Z M378.20-10.68Q378.20-10.56 378.08-9L378.08-9L361.80-9Q362.24-7 363.88-5.84Q365.52-4.68 367.96-4.68L367.96-4.68Q369.64-4.68 370.94-5.18Q372.24-5.68 373.36-6.76L373.36-6.76L376.68-3.16Q373.64 0.32 367.80 0.32L367.80 0.32Q364.16 0.32 361.36-1.10Q358.56-2.52 357.04-5.04Q355.52-7.56 355.52-10.76L355.52-10.76Q355.52-13.92 357.02-16.46Q358.52-19 361.14-20.42Q363.76-21.84 367.00-21.84L367.00-21.84Q370.16-21.84 372.72-20.48Q375.28-19.12 376.74-16.58Q378.20-14.04 378.20-10.68L378.20-10.68ZM367.04-17.12Q364.92-17.12 363.48-15.92Q362.04-14.72 361.72-12.64L361.72-12.64L372.32-12.64Q372.00-14.68 370.56-15.90Q369.12-17.12 367.04-17.12L367.04-17.12Z M390.32-18.68Q391.44-20.24 393.34-21.04Q395.24-21.84 397.72-21.84L397.72-21.84L397.72-16.08Q396.68-16.16 396.32-16.16L396.32-16.16Q393.64-16.16 392.12-14.66Q390.60-13.16 390.60-10.16L390.60-10.16L390.60 0L384.36 0L384.36-21.52L390.32-21.52L390.32-18.68Z M424.32-10.68Q424.32-10.56 424.20-9L424.20-9L407.92-9Q408.36-7 410.00-5.84Q411.64-4.68 414.08-4.68L414.08-4.68Q415.76-4.68 417.06-5.18Q418.36-5.68 419.48-6.76L419.48-6.76L422.80-3.16Q419.76 0.32 413.92 0.32L413.92 0.32Q410.28 0.32 407.48-1.10Q404.68-2.52 403.16-5.04Q401.64-7.56 401.64-10.76L401.64-10.76Q401.64-13.92 403.14-16.46Q404.64-19 407.26-20.42Q409.88-21.84 413.12-21.84L413.12-21.84Q416.28-21.84 418.84-20.48Q421.40-19.12 422.86-16.58Q424.32-14.04 424.32-10.68L424.32-10.68ZM413.16-17.12Q411.04-17.12 409.60-15.92Q408.16-14.72 407.84-12.64L407.84-12.64L418.44-12.64Q418.12-14.68 416.68-15.90Q415.24-17.12 413.16-17.12L413.16-17.12Z M446.16-29.68L452.40-29.68L452.40 0L446.44 0L446.44-2.48Q444.12 0.32 439.72 0.32L439.72 0.32Q436.68 0.32 434.22-1.04Q431.76-2.40 430.36-4.92Q428.96-7.44 428.96-10.76L428.96-10.76Q428.96-14.08 430.36-16.60Q431.76-19.12 434.22-20.48Q436.68-21.84 439.72-21.84L439.72-21.84Q443.84-21.84 446.16-19.24L446.16-19.24L446.16-29.68ZM440.80-4.80Q443.16-4.80 444.72-6.42Q446.28-8.04 446.28-10.76L446.28-10.76Q446.28-13.48 444.72-15.10Q443.16-16.72 440.80-16.72L440.80-16.72Q438.40-16.72 436.84-15.10Q435.28-13.48 435.28-10.76L435.28-10.76Q435.28-8.04 436.84-6.42Q438.40-4.80 440.80-4.80L440.80-4.80Z M487.32 0.48Q483.04 0.48 479.58-1.38Q476.12-3.24 474.14-6.54Q472.16-9.84 472.16-14L472.16-14Q472.16-18.16 474.14-21.46Q476.12-24.76 479.58-26.62Q483.04-28.48 487.36-28.48L487.36-28.48Q491.00-28.48 493.94-27.20Q496.88-25.92 498.88-23.52L498.88-23.52L494.72-19.68Q491.88-22.96 487.68-22.96L487.68-22.96Q485.08-22.96 483.04-21.82Q481.00-20.68 479.86-18.64Q478.72-16.60 478.72-14L478.72-14Q478.72-11.40 479.86-9.36Q481.00-7.32 483.04-6.18Q485.08-5.04 487.68-5.04L487.68-5.04Q491.88-5.04 494.72-8.36L494.72-8.36L498.88-4.52Q496.88-2.08 493.92-0.80Q490.96 0.48 487.32 0.48L487.32 0.48Z M514.28 0.32Q510.88 0.32 508.18-1.10Q505.48-2.52 503.96-5.04Q502.44-7.56 502.44-10.76L502.44-10.76Q502.44-13.96 503.96-16.48Q505.48-19 508.18-20.42Q510.88-21.84 514.28-21.84L514.28-21.84Q517.68-21.84 520.36-20.42Q523.04-19 524.56-16.48Q526.08-13.96 526.08-10.76L526.08-10.76Q526.08-7.56 524.56-5.04Q523.04-2.52 520.36-1.10Q517.68 0.32 514.28 0.32L514.28 0.32ZM514.28-4.80Q516.68-4.80 518.22-6.42Q519.76-8.04 519.76-10.76L519.76-10.76Q519.76-13.48 518.22-15.10Q516.68-16.72 514.28-16.72L514.28-16.72Q511.88-16.72 510.32-15.10Q508.76-13.48 508.76-10.76L508.76-10.76Q508.76-8.04 510.32-6.42Q511.88-4.80 514.28-4.80L514.28-4.80Z M545.32-21.84Q549.32-21.84 551.78-19.44Q554.24-17.04 554.24-12.32L554.24-12.32L554.24 0L548.00 0L548.00-11.36Q548.00-13.92 546.88-15.18Q545.76-16.44 543.64-16.44L543.64-16.44Q541.28-16.44 539.88-14.98Q538.48-13.52 538.48-10.64L538.48-10.64L538.48 0L532.24 0L532.24-21.52L538.20-21.52L538.20-19Q539.44-20.36 541.28-21.10Q543.12-21.84 545.32-21.84L545.32-21.84Z M574.08-5.44L575.76-1.04Q574.84-0.36 573.50-0.02Q572.16 0.32 570.68 0.32L570.68 0.32Q566.84 0.32 564.74-1.64Q562.64-3.60 562.64-7.40L562.64-7.40L562.64-16.24L559.32-16.24L559.32-21.04L562.64-21.04L562.64-26.28L568.88-26.28L568.88-21.04L574.24-21.04L574.24-16.24L568.88-16.24L568.88-7.48Q568.88-6.12 569.58-5.38Q570.28-4.64 571.56-4.64L571.56-4.64Q573.04-4.64 574.08-5.44L574.08-5.44Z M601.68-10.68Q601.68-10.56 601.56-9L601.56-9L585.28-9Q585.72-7 587.36-5.84Q589.00-4.68 591.44-4.68L591.44-4.68Q593.12-4.68 594.42-5.18Q595.72-5.68 596.84-6.76L596.84-6.76L600.16-3.16Q597.12 0.32 591.28 0.32L591.28 0.32Q587.64 0.32 584.84-1.10Q582.04-2.52 580.52-5.04Q579.00-7.56 579.00-10.76L579.00-10.76Q579.00-13.92 580.50-16.46Q582.00-19 584.62-20.42Q587.24-21.84 590.48-21.84L590.48-21.84Q593.64-21.84 596.20-20.48Q598.76-19.12 600.22-16.58Q601.68-14.04 601.68-10.68L601.68-10.68ZM590.52-17.12Q588.40-17.12 586.96-15.92Q585.52-14.72 585.20-12.64L585.20-12.64L595.80-12.64Q595.48-14.68 594.04-15.90Q592.60-17.12 590.52-17.12L590.52-17.12Z M620.92-21.84Q624.92-21.84 627.38-19.44Q629.84-17.04 629.84-12.32L629.84-12.32L629.84 0L623.60 0L623.60-11.36Q623.60-13.92 622.48-15.18Q621.36-16.44 619.24-16.44L619.24-16.44Q616.88-16.44 615.48-14.98Q614.08-13.52 614.08-10.64L614.08-10.64L614.08 0L607.84 0L607.84-21.52L613.80-21.52L613.80-19Q615.04-20.36 616.88-21.10Q618.72-21.84 620.92-21.84L620.92-21.84Z M649.68-5.44L651.36-1.04Q650.44-0.36 649.10-0.02Q647.76 0.32 646.28 0.32L646.28 0.32Q642.44 0.32 640.34-1.64Q638.24-3.60 638.24-7.40L638.24-7.40L638.24-16.24L634.92-16.24L634.92-21.04L638.24-21.04L638.24-26.28L644.48-26.28L644.48-21.04L649.84-21.04L649.84-16.24L644.48-16.24L644.48-7.48Q644.48-6.12 645.18-5.38Q645.88-4.64 647.16-4.64L647.16-4.64Q648.64-4.64 649.68-5.44L649.68-5.44Z M695.56-3.48L692.16 0.48L688.80-2.64Q684.80 0.48 679.44 0.48L679.44 0.48Q676.40 0.48 673.96-0.50Q671.52-1.48 670.14-3.24Q668.76-5 668.76-7.20L668.76-7.20Q668.76-9.80 670.22-11.78Q671.68-13.76 674.92-15.56L674.92-15.56Q673.40-17.12 672.72-18.54Q672.04-19.96 672.04-21.48L672.04-21.48Q672.04-23.52 673.12-25.08Q674.20-26.64 676.18-27.50Q678.16-28.36 680.76-28.36L680.76-28.36Q684.40-28.36 686.60-26.62Q688.80-24.88 688.80-21.92L688.80-21.92Q688.80-19.76 687.50-18.08Q686.20-16.40 683.32-14.84L683.32-14.84L688.44-10.08Q689.36-12 689.84-14.44L689.84-14.44L694.84-12.88Q694.04-9.16 692.28-6.52L692.28-6.52L695.56-3.48ZM680.76-24.12Q679.36-24.12 678.54-23.40Q677.72-22.68 677.72-21.56L677.72-21.56Q677.72-20.72 678.16-19.98Q678.60-19.24 679.88-18L679.88-18Q681.92-19.08 682.72-19.94Q683.52-20.80 683.52-21.80L683.52-21.80Q683.52-22.84 682.80-23.48Q682.08-24.12 680.76-24.12L680.76-24.12ZM679.88-4.40Q682.80-4.40 685.12-6.04L685.12-6.04L678.36-12.36Q676.48-11.28 675.68-10.24Q674.88-9.20 674.88-7.88L674.88-7.88Q674.88-6.32 676.24-5.36Q677.60-4.40 679.88-4.40L679.88-4.40Z M715.08 0L715.08-28L727.80-28Q732.36-28 735.86-26.26Q739.36-24.52 741.30-21.36Q743.24-18.20 743.24-14L743.24-14Q743.24-9.80 741.30-6.64Q739.36-3.48 735.86-1.74Q732.36 0 727.80 0L727.80 0L715.08 0ZM721.56-5.32L727.48-5.32Q731.68-5.32 734.18-7.66Q736.68-10 736.68-14L736.68-14Q736.68-18 734.18-20.34Q731.68-22.68 727.48-22.68L727.48-22.68L721.56-22.68L721.56-5.32Z M758.36-21.84Q763.36-21.84 766.04-19.46Q768.72-17.08 768.72-12.28L768.72-12.28L768.72 0L762.88 0L762.88-2.68Q761.12 0.32 756.32 0.32L756.32 0.32Q753.84 0.32 752.02-0.52Q750.20-1.36 749.24-2.84Q748.28-4.32 748.28-6.20L748.28-6.20Q748.28-9.20 750.54-10.92Q752.80-12.64 757.52-12.64L757.52-12.64L762.48-12.64Q762.48-14.68 761.24-15.78Q760-16.88 757.52-16.88L757.52-16.88Q755.80-16.88 754.14-16.34Q752.48-15.80 751.32-14.88L751.32-14.88L749.08-19.24Q750.84-20.48 753.30-21.16Q755.76-21.84 758.36-21.84L758.36-21.84ZM757.88-3.88Q759.48-3.88 760.72-4.62Q761.96-5.36 762.48-6.80L762.48-6.80L762.48-9L758.20-9Q754.36-9 754.36-6.48L754.36-6.48Q754.36-5.28 755.30-4.58Q756.24-3.88 757.88-3.88L757.88-3.88Z M788.56-5.44L790.24-1.04Q789.32-0.36 787.98-0.02Q786.64 0.32 785.16 0.32L785.16 0.32Q781.32 0.32 779.22-1.64Q777.12-3.60 777.12-7.40L777.12-7.40L777.12-16.24L773.80-16.24L773.80-21.04L777.12-21.04L777.12-26.28L783.36-26.28L783.36-21.04L788.72-21.04L788.72-16.24L783.36-16.24L783.36-7.48Q783.36-6.12 784.06-5.38Q784.76-4.64 786.04-4.64L786.04-4.64Q787.52-4.64 788.56-5.44L788.56-5.44Z M804.44-21.84Q809.44-21.84 812.12-19.46Q814.80-17.08 814.80-12.28L814.80-12.28L814.80 0L808.96 0L808.96-2.68Q807.20 0.32 802.40 0.32L802.40 0.32Q799.92 0.32 798.10-0.52Q796.28-1.36 795.32-2.84Q794.36-4.32 794.36-6.20L794.36-6.20Q794.36-9.20 796.62-10.92Q798.88-12.64 803.60-12.64L803.60-12.64L808.56-12.64Q808.56-14.68 807.32-15.78Q806.08-16.88 803.60-16.88L803.60-16.88Q801.88-16.88 800.22-16.34Q798.56-15.80 797.40-14.88L797.40-14.88L795.16-19.24Q796.92-20.48 799.38-21.16Q801.84-21.84 804.44-21.84L804.44-21.84ZM803.96-3.88Q805.56-3.88 806.80-4.62Q808.04-5.36 808.56-6.80L808.56-6.80L808.56-9L804.28-9Q800.44-9 800.44-6.48L800.44-6.48Q800.44-5.28 801.38-4.58Q802.32-3.88 803.96-3.88L803.96-3.88Z M848.32-28Q852.04-28 854.78-26.76Q857.52-25.52 859.00-23.24Q860.48-20.96 860.48-17.84L860.48-17.84Q860.48-14.76 859.00-12.46Q857.52-10.16 854.78-8.94Q852.04-7.72 848.32-7.72L848.32-7.72L842.68-7.72L842.68 0L836.20 0L836.20-28L848.32-28ZM847.96-13Q850.88-13 852.40-14.26Q853.92-15.52 853.92-17.84L853.92-17.84Q853.92-20.20 852.40-21.46Q850.88-22.72 847.96-22.72L847.96-22.72L842.68-22.72L842.68-13L847.96-13Z M867.04 0L867.04-29.68L873.28-29.68L873.28 0L867.04 0Z M889.76-21.84Q894.76-21.84 897.44-19.46Q900.12-17.08 900.12-12.28L900.12-12.28L900.12 0L894.28 0L894.28-2.68Q892.52 0.32 887.72 0.32L887.72 0.32Q885.24 0.32 883.42-0.52Q881.60-1.36 880.64-2.84Q879.68-4.32 879.68-6.20L879.68-6.20Q879.68-9.20 881.94-10.92Q884.20-12.64 888.92-12.64L888.92-12.64L893.88-12.64Q893.88-14.68 892.64-15.78Q891.40-16.88 888.92-16.88L888.92-16.88Q887.20-16.88 885.54-16.34Q883.88-15.80 882.72-14.88L882.72-14.88L880.48-19.24Q882.24-20.48 884.70-21.16Q887.16-21.84 889.76-21.84L889.76-21.84ZM889.28-3.88Q890.88-3.88 892.12-4.62Q893.36-5.36 893.88-6.80L893.88-6.80L893.88-9L889.60-9Q885.76-9 885.76-6.48L885.76-6.48Q885.76-5.28 886.70-4.58Q887.64-3.88 889.28-3.88L889.28-3.88Z M919.96-5.44L921.64-1.04Q920.72-0.36 919.38-0.02Q918.04 0.32 916.56 0.32L916.56 0.32Q912.72 0.32 910.62-1.64Q908.52-3.60 908.52-7.40L908.52-7.40L908.52-16.24L905.20-16.24L905.20-21.04L908.52-21.04L908.52-26.28L914.76-26.28L914.76-21.04L920.12-21.04L920.12-16.24L914.76-16.24L914.76-7.48Q914.76-6.12 915.46-5.38Q916.16-4.64 917.44-4.64L917.44-4.64Q918.92-4.64 919.96-5.44L919.96-5.44Z M934.00-21.96L934.00-21.04L939.52-21.04L939.52-16.24L934.16-16.24L934.16 0L927.92 0L927.92-16.24L924.60-16.24L924.60-21.04L927.92-21.04L927.92-22Q927.92-25.68 930.10-27.84Q932.28-30 936.24-30L936.24-30Q937.64-30 938.90-29.70Q940.16-29.40 941.00-28.84L941.00-28.84L939.36-24.32Q938.28-25.08 936.84-25.08L936.84-25.08Q934.00-25.08 934.00-21.96L934.00-21.96Z M954.60 0.32Q951.20 0.32 948.50-1.10Q945.80-2.52 944.28-5.04Q942.76-7.56 942.76-10.76L942.76-10.76Q942.76-13.96 944.28-16.48Q945.80-19 948.50-20.42Q951.20-21.84 954.60-21.84L954.60-21.84Q958.00-21.84 960.68-20.42Q963.36-19 964.88-16.48Q966.40-13.96 966.40-10.76L966.40-10.76Q966.40-7.56 964.88-5.04Q963.36-2.52 960.68-1.10Q958.00 0.32 954.60 0.32L954.60 0.32ZM954.60-4.80Q957.00-4.80 958.54-6.42Q960.08-8.04 960.08-10.76L960.08-10.76Q960.08-13.48 958.54-15.10Q957.00-16.72 954.60-16.72L954.60-16.72Q952.20-16.72 950.64-15.10Q949.08-13.48 949.08-10.76L949.08-10.76Q949.08-8.04 950.64-6.42Q952.20-4.80 954.60-4.80L954.60-4.80Z M978.52-18.68Q979.64-20.24 981.54-21.04Q983.44-21.84 985.92-21.84L985.92-21.84L985.92-16.08Q984.88-16.16 984.52-16.16L984.52-16.16Q981.84-16.16 980.32-14.66Q978.80-13.16 978.80-10.16L978.80-10.16L978.80 0L972.56 0L972.56-21.52L978.52-21.52L978.52-18.68Z M1019.20-21.84Q1023.24-21.84 1025.62-19.46Q1028.00-17.08 1028.00-12.32L1028.00-12.32L1028.00 0L1021.76 0L1021.76-11.36Q1021.76-13.92 1020.70-15.18Q1019.64-16.44 1017.68-16.44L1017.68-16.44Q1015.48-16.44 1014.20-15.02Q1012.92-13.60 1012.92-10.80L1012.92-10.80L1012.92 0L1006.68 0L1006.68-11.36Q1006.68-16.44 1002.60-16.44L1002.60-16.44Q1000.44-16.44 999.16-15.02Q997.88-13.60 997.88-10.80L997.88-10.80L997.88 0L991.64 0L991.64-21.52L997.60-21.52L997.60-19.04Q998.80-20.40 1000.54-21.12Q1002.28-21.84 1004.36-21.84L1004.36-21.84Q1006.64-21.84 1008.48-20.94Q1010.32-20.04 1011.44-18.32L1011.44-18.32Q1012.76-20 1014.78-20.92Q1016.80-21.84 1019.20-21.84L1019.20-21.84Z"/></g>
</svg>
</g><g opacity="1" transform="rotate(0 1010.929 460.5113)">
<svg width="245.3726" height="62.3275" x="1010.929" y="460.5113" version="1.1" preserveAspectRatio="none" viewBox="3.32 -28 142.04000000000002 36.08">
  <g transform="matrix(1 0 0 1 0 0)" class="background"><path id="id-D6z1nYkh5" d="M24.48-22.80L9.80-22.80L9.80-15.40L22.76-15.40L22.76-10.20L9.80-10.20L9.80 0L3.32 0L3.32-28L24.48-28L24.48-22.80Z M48.96-10.68Q48.96-10.56 48.84-9L48.84-9L32.56-9Q33-7 34.64-5.84Q36.28-4.68 38.72-4.68L38.72-4.68Q40.40-4.68 41.70-5.18Q43-5.68 44.12-6.76L44.12-6.76L47.44-3.16Q44.40 0.32 38.56 0.32L38.56 0.32Q34.92 0.32 32.12-1.10Q29.32-2.52 27.80-5.04Q26.28-7.56 26.28-10.76L26.28-10.76Q26.28-13.92 27.78-16.46Q29.28-19 31.90-20.42Q34.52-21.84 37.76-21.84L37.76-21.84Q40.92-21.84 43.48-20.48Q46.04-19.12 47.50-16.58Q48.96-14.04 48.96-10.68L48.96-10.68ZM37.80-17.12Q35.68-17.12 34.24-15.92Q32.80-14.72 32.48-12.64L32.48-12.64L43.08-12.64Q42.76-14.68 41.32-15.90Q39.88-17.12 37.80-17.12L37.80-17.12Z M69.40-21.52L75.32-21.52L75.32-3.60Q75.32 2.32 72.24 5.20Q69.16 8.08 63.24 8.08L63.24 8.08Q60.12 8.08 57.32 7.32Q54.52 6.56 52.68 5.12L52.68 5.12L55.16 0.64Q56.52 1.76 58.60 2.42Q60.68 3.08 62.76 3.08L62.76 3.08Q66.00 3.08 67.54 1.62Q69.08 0.16 69.08-2.80L69.08-2.80L69.08-3.72Q66.64-1.04 62.28-1.04L62.28-1.04Q59.32-1.04 56.86-2.34Q54.40-3.64 52.96-6Q51.52-8.36 51.52-11.44L51.52-11.44Q51.52-14.52 52.96-16.88Q54.40-19.24 56.86-20.54Q59.32-21.84 62.28-21.84L62.28-21.84Q66.96-21.84 69.40-18.76L69.40-18.76L69.40-21.52ZM63.52-6.16Q66.00-6.16 67.58-7.62Q69.16-9.08 69.16-11.44L69.16-11.44Q69.16-13.80 67.58-15.26Q66.00-16.72 63.52-16.72L63.52-16.72Q61.04-16.72 59.44-15.26Q57.84-13.80 57.84-11.44L57.84-11.44Q57.84-9.08 59.44-7.62Q61.04-6.16 63.52-6.16L63.52-6.16Z M108.68-21.84Q112.72-21.84 115.10-19.46Q117.48-17.08 117.48-12.32L117.48-12.32L117.48 0L111.24 0L111.24-11.36Q111.24-13.92 110.18-15.18Q109.12-16.44 107.16-16.44L107.16-16.44Q104.96-16.44 103.68-15.02Q102.40-13.60 102.40-10.80L102.40-10.80L102.40 0L96.16 0L96.16-11.36Q96.16-16.44 92.08-16.44L92.08-16.44Q89.92-16.44 88.64-15.02Q87.36-13.60 87.36-10.80L87.36-10.80L87.36 0L81.12 0L81.12-21.52L87.08-21.52L87.08-19.04Q88.28-20.40 90.02-21.12Q91.76-21.84 93.84-21.84L93.84-21.84Q96.12-21.84 97.96-20.94Q99.80-20.04 100.92-18.32L100.92-18.32Q102.24-20 104.26-20.92Q106.28-21.84 108.68-21.84L108.68-21.84Z M133.56 0.32Q130.16 0.32 127.46-1.10Q124.76-2.52 123.24-5.04Q121.72-7.56 121.72-10.76L121.72-10.76Q121.72-13.96 123.24-16.48Q124.76-19 127.46-20.42Q130.16-21.84 133.56-21.84L133.56-21.84Q136.96-21.84 139.64-20.42Q142.32-19 143.84-16.48Q145.36-13.96 145.36-10.76L145.36-10.76Q145.36-7.56 143.84-5.04Q142.32-2.52 139.64-1.10Q136.96 0.32 133.56 0.32L133.56 0.32ZM133.56-4.80Q135.96-4.80 137.50-6.42Q139.04-8.04 139.04-10.76L139.04-10.76Q139.04-13.48 137.50-15.10Q135.96-16.72 133.56-16.72L133.56-16.72Q131.16-16.72 129.60-15.10Q128.04-13.48 128.04-10.76L128.04-10.76Q128.04-8.04 129.60-6.42Q131.16-4.80 133.56-4.80L133.56-4.80Z"/></g>
</svg>
</g><g opacity="1" transform="rotate(0 895 441.813)">
<svg width="99.7239" height="99.724" x="895" y="441.813" version="1.1" preserveAspectRatio="none" viewBox="0 0 99.7239 99.724">
  <defs><rect x="1.994478" y="1.994478" width="95.734944" height="95.735044" rx="0px" ry="0px" id="id-tBXipXk0b"></rect></defs><use class="atBXipXk0bfillColor atBXipXk0bstrokeColor-str" style="stroke-width:3.988956;" xlink:href="#id-tBXipXk0b"></use>
</svg>
</g><g opacity="1" transform="rotate(0 909.6061 463.7103)">
<svg width="70.5117" height="55.9295" x="909.6061" y="463.7103" version="1.1" preserveAspectRatio="none" viewBox="19.974998474121097 36.47500228881836 160.04998779296875 126.9499969482422">
  <g transform="matrix(1 0 0 -1 0 199.9000015258789)"><g><path d="m174.4 113.6-44.2 44.2c-7.5 7.5-19.7 7.5-27.2 0s-7.5-19.8 0-27.3l30.6-30.6L103 69.4c-7.5-7.5-7.5-19.8 0-27.3s19.7-7.5 27.2 0l44.2 44.2c7.5 7.6 7.5 19.8 0 27.3zm-74.2-27.2c-7.5-7.5-19.7-7.5-27.2 0s-7.5 19.7 0 27.3c7.5 7.5 19.7 7.5 27.2 0 7.5-7.6 7.5-19.8 0-27.3zm-74.6 0c-7.5 7.5-7.5 19.7 0 27.3 7.5 7.5 19.7 7.5 27.2 0s7.5-19.7 0-27.3c-7.5-7.5-19.6-7.5-27.2 0z" data-color="1" class="aa8CRUGvPqAcolors-0"></path></g></g>
</svg>
</g></svg>